<svg width="272" height="272" viewBox="0 0 272 272" fill="none" xmlns="http://www.w3.org/2000/svg">
<path d="M272 136C272 211.111 211.111 272 136 272C60.8893 272 0 211.111 0 136C0 60.8893 60.8893 0 136 0C211.111 0 272 60.8893 272 136Z" fill="#F7F3F3"/>
<path d="M233 127C233 182.228 188.228 227 133 227C77.7715 227 33 182.228 33 127C33 71.7715 77.7715 27 133 27C188.228 27 233 71.7715 233 127Z" fill="#F4D06F"/>
<path d="M112.375 218.293L112.277 220.148C112.277 229.068 115.109 236.229 120.773 241.633C126.698 247.362 134.738 250.227 144.895 250.227C154.139 250.227 162.733 247.46 170.676 241.926C172.173 240.884 173.508 240.363 174.68 240.363C177.089 240.363 178.911 241.568 180.148 243.977L182.785 249.445C183.371 250.747 183.664 252.147 183.664 253.645C183.664 255.142 182.98 256.704 181.613 258.332C180.311 259.895 178.586 261.327 176.438 262.629C174.289 263.931 171.783 265.07 168.918 266.047C166.118 267.023 163.221 267.837 160.227 268.488C154.237 269.79 147.987 270.441 141.477 270.441C134.966 270.441 128.391 269.204 121.75 266.73C115.174 264.257 109.478 260.643 104.66 255.891C94.3086 245.799 89.1328 232.16 89.1328 214.973C89.1328 184.829 99.7448 166.079 120.969 158.723C127.609 156.444 134.413 155.305 141.379 155.305C148.41 155.305 154.367 156.053 159.25 157.551C164.198 159.048 168.462 161.262 172.043 164.191C179.595 170.376 183.371 179.003 183.371 190.07C183.371 200.943 178.944 209.243 170.09 214.973C162.342 219.986 152.121 222.492 139.426 222.492C131.613 222.492 122.596 221.092 112.375 218.293ZM160.422 189.777C160.422 180.467 154.172 175.812 141.672 175.812C129.758 175.812 121.424 180.174 116.672 188.898C114.979 191.958 113.872 195.734 113.352 200.227C118.951 203.026 126.079 204.426 134.738 204.426C151.861 204.426 160.422 199.543 160.422 189.777Z" fill="#0A0903"/>
<path d="M217.341 27C222.216 27 225.48 28.5718 227.132 31.7154C227.711 32.7633 228 34.0731 228 35.6449V87.8512C228 102.521 224.571 115.021 217.713 125.35C209.533 137.924 197.015 144.211 180.159 144.211C168.674 144.211 159.089 141.218 151.405 135.23C144.63 129.841 140.333 122.955 138.515 114.572H138.02C137.441 126.023 133.764 135.529 126.989 143.089C119.057 151.696 108.398 156 95.0124 156C75.5125 156 60.8463 149.526 51.0137 136.577C42.3379 125.275 38 109.931 38 90.5457V35.6449C38 32.5762 39.0328 30.3681 41.0985 29.0209C43.2468 27.6736 45.7669 27 48.6588 27H217.341ZM147.191 54.8433C147.191 66.2202 147.439 75.3142 147.935 82.1253C148.678 93.6519 151.488 102.11 156.363 107.499C161.32 112.888 168.22 115.582 177.061 115.582C185.902 115.582 192.223 112.701 196.023 106.937C199.907 101.249 201.849 92.7163 201.849 81.3394V54.8433H147.191ZM64.3992 90.3211C64.3992 106.788 69.5634 117.715 79.8917 123.104C83.6925 125.125 88.1544 126.136 93.2772 126.136C98.4001 126.136 102.49 125.5 105.547 124.227C108.604 122.955 111.207 121.233 113.356 119.063C115.504 116.892 117.198 114.347 118.437 111.428C119.759 108.509 120.792 105.44 121.536 102.222C122.692 96.6084 123.271 90.9948 123.271 85.3812C123.271 78.3455 123.064 70.8982 122.651 63.0392L122.279 54.8433L64.3992 54.9556V90.3211Z" fill="#0A0903"/>
</svg>
