<svg width="272" height="272" viewBox="0 0 272 272" fill="none" xmlns="http://www.w3.org/2000/svg">
<path d="M272 136C272 211.111 211.111 272 136 272C60.8893 272 0 211.111 0 136C0 60.8893 60.8893 0 136 0C211.111 0 272 60.8893 272 136Z" fill="#D9D9D9"/>
<path d="M233 127C233 182.228 188.228 227 133 227C77.7715 227 33 182.228 33 127C33 71.7715 77.7715 27 133 27C188.228 27 233 71.7715 233 127Z" fill="#F4D06F"/>
<path d="M112.375 218.293L112.277 220.148C112.277 229.068 115.109 236.229 120.773 241.633C126.698 247.362 134.738 250.227 144.895 250.227C154.139 250.227 162.733 247.46 170.676 241.926C172.173 240.884 173.508 240.363 174.68 240.363C177.089 240.363 178.911 241.568 180.148 243.977L182.785 249.445C183.371 250.747 183.664 252.147 183.664 253.645C183.664 255.142 182.98 256.704 181.613 258.332C180.311 259.895 178.586 261.327 176.438 262.629C174.289 263.931 171.783 265.07 168.918 266.047C166.118 267.023 163.221 267.837 160.227 268.488C154.237 269.79 147.987 270.441 141.477 270.441C134.966 270.441 128.391 269.204 121.75 266.73C115.174 264.257 109.478 260.643 104.66 255.891C94.3086 245.799 89.1328 232.16 89.1328 214.973C89.1328 184.829 99.7448 166.079 120.969 158.723C127.609 156.444 134.413 155.305 141.379 155.305C148.41 155.305 154.367 156.053 159.25 157.551C164.198 159.048 168.462 161.262 172.043 164.191C179.595 170.376 183.371 179.003 183.371 190.07C183.371 200.943 178.944 209.243 170.09 214.973C162.342 219.986 152.121 222.492 139.426 222.492C131.613 222.492 122.596 221.092 112.375 218.293ZM160.422 189.777C160.422 180.467 154.172 175.812 141.672 175.812C129.758 175.812 121.424 180.174 116.672 188.898C114.979 191.958 113.872 195.734 113.352 200.227C118.951 203.026 126.079 204.426 134.738 204.426C151.861 204.426 160.422 199.543 160.422 189.777Z" fill="#0A0903"/>
<path d="M205.505 26.7285C209.922 26.7285 212.88 28.3008 214.377 31.4453C214.901 32.4935 215.163 33.8037 215.163 35.376V87.5977C215.163 102.272 212.056 114.775 205.842 125.107C198.43 137.686 187.087 143.975 171.813 143.975C161.407 143.975 152.722 140.98 145.759 134.99C139.619 129.6 135.726 122.712 134.079 114.326H133.63C133.106 125.781 129.774 135.29 123.635 142.852C116.447 151.462 106.789 155.767 94.6602 155.767C76.9909 155.767 63.7015 149.29 54.792 136.338C46.9307 125.033 43 109.684 43 90.293V35.376C43 32.3063 43.9359 30.0977 45.8076 28.75C47.7542 27.4023 50.0378 26.7285 52.6582 26.7285H205.505ZM141.94 54.5801C141.94 65.9603 142.165 75.057 142.614 81.8701C143.288 93.4001 145.834 101.86 150.251 107.251C154.743 112.642 160.995 115.337 169.006 115.337C177.017 115.337 182.744 112.454 186.188 106.689C189.707 100.999 191.467 92.4642 191.467 81.084V54.5801H141.94ZM66.9209 90.0684C66.9209 106.54 71.6003 117.471 80.959 122.861C84.403 124.883 88.446 125.894 93.0879 125.894C97.7298 125.894 101.436 125.257 104.206 123.984C106.976 122.712 109.335 120.99 111.281 118.818C113.228 116.647 114.763 114.102 115.886 111.182C117.084 108.262 118.02 105.192 118.693 101.973C119.742 96.3574 120.266 90.7422 120.266 85.127C120.266 78.0892 120.078 70.6396 119.704 62.7783L119.367 54.5801L66.9209 54.6924V90.0684Z" fill="#0A0903"/>
</svg>
